<svg xmlns="http://www.w3.org/2000/svg" width="3000" height="2000" viewBox="0 0 3000 2000">
  <metadata><?xpacket begin="﻿" id="W5M0MpCehiHzreSzNTczkc9d"?>
<x:xmpmeta xmlns:x="adobe:ns:meta/" x:xmptk="Adobe XMP Core 5.6-c142 79.160924, 2017/07/13-01:06:39        ">
   <rdf:RDF xmlns:rdf="http://www.w3.org/1999/02/22-rdf-syntax-ns#">
      <rdf:Description rdf:about=""/>
   </rdf:RDF>
</x:xmpmeta>
                                                                                                    
                                                                                                    
                                                                                                    
                                                                                                    
                                                                                                    
                                                                                                    
                                                                                                    
                                                                                                    
                                                                                                    
                                                                                                    
                                                                                                    
                                                                                                    
                                                                                                    
                                                                                                    
                                                                                                    
                                                                                                    
                                                                                                    
                                                                                                    
                                                                                                    
                                                                                                    
                           
<?xpacket end="w"?></metadata>
<defs>
    <style>
      .cls-1 {
        fill: #ff0;
        fill-rule: evenodd;
      }
    </style>
  </defs>
  <path id="Forme_1-me" data-name="Forme 1-me" class="cls-1" d="M1469.62,1689.54c5.46-9.66,9.6-27.63,11.25-31.5,6.42-15.06,12.43-14.18,22.51-13.5,10.01,0.68,13.52,3.11,18,11.25,0.75,8.25,6,23.25,6.75,31.5,11.34-19.98,29.39-27.39,40.51-22.5,5.11,2.25,8.86,7.14,11.25,13.5l-2.25,36c8.15-4.7,17.07-5.95,22.51-2.25,8.05,5.46,10.34,22.99-2.25,38.24a42.994,42.994,0,0,1,13.5,20.25c5.02,16.86-1.48,36.97-18,51.74q-16.875,24.75-33.76,49.5a111.6,111.6,0,0,1,0,128.23L2.251,1997.75l-4.5-881.89a23.006,23.006,0,0,1,4.5-11.25c22.358-28.55,118.092,9.92,175.543,38.25-5.345-13.24-10.79-26.53-18.6-38.48-7.3-11.17-15.159-21.52-21.911-33.51-5.786-23.21,1.439-44.26,15.754-63-20.255-20.993-37.111-31.8-60.765-62.988l42.761-58.493L99.025,832.4A922.481,922.481,0,0,0,249.812,728.909c30.269-25.544,97.708-100.378,105.777-110.236l117.029,49.493,117.029,36,94.524,139.483-4.5,130.483c20.489-1.649,26.784,9.65,13.5,60.742-13.151,27.35-21.755,61.49-31.508,92.24l-22.5,87.74-27.007,40.49c157.115,46.41,251.2,34.87,141.785,224.97a27.569,27.569,0,0,1,9-6.74c23.59-10.83,55.945,18.2,99.024,53.99,40.93,34,80.324,57.45,99.025,87.74,18.975,30.73,21.857,52.85,49.51,76.49,22.3,19.06,41.71,22.45,65.27,40.49a219.319,219.319,0,0,1,29.26,27,133.461,133.461,0,0,0,17.82,26.05,136.012,136.012,0,0,0,47.44,34.69q18.015,11.25,36.01,22.5c8.25,12.22,15.88,24.36,22.51,36,5.49,9.63,11.78,23.34,22.5,24.74,10.07,1.32,18.85-9.16,29.26-20.25,7-7.45,13.64-14.82,20.26-22.49l24.75-40.5q33.765-20.25,67.52-40.49c15.35-18.06,38.74-37.25,54.01-56.25"/>
  <path id="Forme_2-skills" data-name="Forme 2-skills" class="cls-1" d="M1253.56,697.413c-9.38-8.512-22.5-9-22.5-9L686.422,704.162s-12.59-.372-18,4.5c-5.823,5.239-4.5,15.748-4.5,15.748l20.255,249.719s11.487,0.391,11.253,11.249c-0.4,18.6-4.5,26.993-4.5,26.993l4.5,67.5,6.752,13.49-42.761,36-6.752,15.75s-2.82,17.11-6.752,40.49c-3.758,22.35-18,42.75-18,42.75l567.143-6.75a54.324,54.324,0,0,0,27.01-6.75c7.32-3.99,15.75-18,15.75-18l40.51-110.24-9-8.99,9-15.75-15.75-346.459S1259.53,702.832,1253.56,697.413Z"/>
  <path id="Forme_3-Working_experience" data-name="Forme 3-Working experience" class="cls-1" d="M1489.87,1145.11s-3.92,8.45,0,13.5c3.96,5.08,15.76,8.99,15.76,8.99l198.05,27s15.4-1.58,24.75-4.5c8.62-2.69,15.76-11.25,15.76-11.25l92.27-80.99-9-29.24,186.79,20.24s16.06,1.13,24.76-4.5c10.29-6.65,13.5-20.24,13.5-20.24l6.75-501.69s2.79-21.924-2.25-29.247c-7.01-10.192-22.5-6.749-22.5-6.749l-747.19,9s-18.21-2.894-24.75,2.25c-8.86,6.953-6.76,22.5-6.76,22.5l29.26,420.7s-2.25,15.185,4.5,22.493,22.51,6.75,22.51,6.75l333.08,36s12.24,3.96,13.5,27c0.4,7.18-18,8.99-18,8.99Z"/>
  <path id="Forme_4-Education" data-name="Forme 4-Education" class="cls-1" d="M2534.13,1698.54l-222.8,294.71-175.55-51.74-110.27-15.75-130.54-18-36.01-11.25-9,9-94.52-13.5s-32.06-2.25-54.01-13.49c-24.09-12.33-38.26-33.75-38.26-33.75l9-4.5-9-20.25,27-44.99,47.26-105.74,18.01-56.24s3.34-20.46,11.25-38.25c9.88-22.21,24.76-42.74,24.76-42.74s-4.01,21.84,6.75,35.99c10.62,13.97,33.76,15.75,33.76,15.75l18-33.74,38.26,20.24,9-15.74s7.94,14.53,20.26,20.24c18.06,8.39,42.76,9,42.76,9l15.75-20.25,24.76,18,9-24.74,13.51,11.24,4.5-8.99,47.26,20.24,15.75-6.75a49.845,49.845,0,0,0,22.51,6.75c14.15,0.59,31.51-4.5,31.51-4.5s43.91,22.83,76.52,33.75C2250.34,1618.27,2534.13,1698.54,2534.13,1698.54Z"/>
  <path id="Forme_5-Send_to_thesis" data-name="Forme 5-Send to thesis" class="cls-1" d="M1251.31,168.729l22.51,364.454h578.39l6.75-416.2Z"/>
  <path id="Forme_6-Send_to_No_matter" data-name="Forme 6-Send to No matter" class="cls-1" d="M1930.98,526.434l-2.25-159.73s4.37-23.272,2.25-44.994c-2.36-24.257-11.25-47.244-11.25-47.244l6.75-159.73,722.43-62.993v36l-51.76,978.631-171.04-2.25s-58.42-55.89-182.3-49.5c-102.66,5.3-122.47,31.84-139.53,40.5-3.58,1.81-54.02,0-54.02,0l6.75-512.938-22.5-18Z"/>
</svg>
