<svg xmlns="http://www.w3.org/2000/svg" width="1333" height="889" viewBox="0 0 1333 889">
  <metadata><?xpacket begin="﻿" id="W5M0MpCehiHzreSzNTczkc9d"?>
<x:xmpmeta xmlns:x="adobe:ns:meta/" x:xmptk="Adobe XMP Core 5.6-c142 79.160924, 2017/07/13-01:06:39        ">
   <rdf:RDF xmlns:rdf="http://www.w3.org/1999/02/22-rdf-syntax-ns#">
      <rdf:Description rdf:about=""/>
   </rdf:RDF>
</x:xmpmeta>
                                                                                                    
                                                                                                    
                                                                                                    
                                                                                                    
                                                                                                    
                                                                                                    
                                                                                                    
                                                                                                    
                                                                                                    
                                                                                                    
                                                                                                    
                                                                                                    
                                                                                                    
                                                                                                    
                                                                                                    
                                                                                                    
                                                                                                    
                                                                                                    
                                                                                                    
                                                                                                    
                           
<?xpacket end="w"?></metadata>
<defs>
    <style>
      .cls-1 {
        fill: #ff0;
        fill-rule: evenodd;
      }
    </style>
  </defs>
  <path id="Forme_1-me" data-name="Forme 1-me" class="cls-1" d="M653,751c2.427-4.294,4.267-12.28,5-14,2.855-6.7,5.522-6.3,10-6,4.452,0.3,6.009,1.379,8,5,0.333,3.667,2.667,10.333,3,14,5.037-8.882,13.056-12.173,18-10,2.27,1,3.934,3.174,5,6l-1,16c3.617-2.086,7.582-2.643,10-1,3.577,2.431,4.593,10.223-1,17a19.119,19.119,0,0,1,6,9c2.23,7.5-.658,16.436-8,23l-15,22a49.614,49.614,0,0,1,0,57L1,888-1,496a10.221,10.221,0,0,1,2-5c9.934-12.693,52.473,4.408,78,17-2.375-5.883-4.794-11.793-8.264-17.1C67.49,485.932,64,481.333,61,476c-2.571-10.314.639-19.673,7-28-9-9.333-16.49-14.136-27-28l19-26L44,370a409.924,409.924,0,0,0,67-46c13.449-11.354,43.415-44.618,47-49l52,22,52,16,42,62-2,58c9.1-.733,11.9,4.289,6,27-5.844,12.156-9.667,27.333-14,41l-10,39-12,18c69.811,20.628,111.615,15.5,63,100a12.22,12.22,0,0,1,4-3c10.482-4.813,24.858,8.092,44,24,18.186,15.114,35.69,25.536,44,39,8.431,13.66,9.712,23.494,22,34,9.909,8.472,18.53,9.981,29,18a97.258,97.258,0,0,1,13,12,59.34,59.34,0,0,0,7.922,11.578A60.413,60.413,0,0,0,520,809l16,10c3.667,5.433,7.053,10.829,10,16,2.44,4.282,5.235,10.375,10,11,4.472,0.587,8.376-4.074,13-9,3.109-3.312,6.059-6.59,9-10l11-18,30-18c6.823-8.027,17.214-16.555,24-25"/>
  <path id="Forme_2-skills" data-name="Forme 2-skills" class="cls-1" d="M557,310a17.5,17.5,0,0,0-10-4l-242,7s-5.594-.166-8,2c-2.587,2.329-2,7-2,7l9,111s5.1,0.174,5,5c-0.178,8.269-2,12-2,12l2,30,3,6-19,16-3,7s-1.253,7.609-3,18c-1.67,9.933-8,19-8,19l252-3a24.108,24.108,0,0,0,12-3c3.255-1.773,7-8,7-8l18-49-4-4,4-7-7-154S559.653,312.409,557,310Z"/>
  <path id="Forme_3-Working_experience" data-name="Forme 3-Working experience" class="cls-1" d="M662,509s-1.743,3.758,0,6c1.757,2.258,7,4,7,4l88,12a71.551,71.551,0,0,0,11-2c3.829-1.2,7-5,7-5l41-36-4-13,83,9s7.132,0.5,11-2c4.573-2.959,6-9,6-9l3-223s1.238-9.745-1-13c-3.115-4.53-10-3-10-3l-332,4s-8.09-1.286-11,1c-3.934,3.091-3,10-3,10l13,187s-1,6.75,2,10,10,3,10,3l148,16s5.436,1.761,6,12c0.176,3.193-8,4-8,4Z"/>
  <path id="Forme_4-Education" data-name="Forme 4-Education" class="cls-1" d="M1126,755l-99,131-78-23-49-7-58-8-16-5-4,4-42-6s-14.244-1-24-6a49.877,49.877,0,0,1-17-15l4-2-4-9,12-20,21-47,8-25a79.932,79.932,0,0,1,5-17,121.311,121.311,0,0,1,11-19s-1.781,9.709,3,16c4.719,6.209,15,7,15,7l8-15,17,9,4-7s3.526,6.459,9,9c8.026,3.726,19,4,19,4l7-9,11,8,4-11,6,5,2-4,21,9,7-3a22.151,22.151,0,0,0,10,3c6.286,0.262,14-2,14-2s19.513,10.146,34,15C999.9,719.322,1126,755,1126,755Z"/>
  <path id="Forme_5-Send_to_thesis" data-name="Forme 5-Send to thesis" class="cls-1" d="M556,75l10,162H823l3-185Z"/>
  <path id="Forme_6-Send_to_No_matter" data-name="Forme 6-Send to No matter" class="cls-1" d="M858,234l-1-71a82.147,82.147,0,0,0,1-20,91.1,91.1,0,0,0-5-21l3-71,321-28V39l-23,435-76-1s-25.96-24.842-81-22c-45.615,2.355-54.418,14.151-62,18-1.589.807-24,0-24,0l3-228-10-8Z"/>
</svg>
